<?xml version="1.0" encoding="utf-8"?>
<!-- Generator: Adobe Illustrator 16.0.3, SVG Export Plug-In . SVG Version: 6.00 Build 0)  -->
<!DOCTYPE svg PUBLIC "-//W3C//DTD SVG 1.1//EN" "http://www.w3.org/Graphics/SVG/1.1/DTD/svg11.dtd">
<svg version="1.1" id="Layer_1" xmlns="http://www.w3.org/2000/svg" xmlns:xlink="http://www.w3.org/1999/xlink" x="0px" y="0px"
	 width="500px" height="500px" viewBox="0 0 500 500" enable-background="new 0 0 500 500" xml:space="preserve">
<g>
	<path fill-rule="evenodd" clip-rule="evenodd" fill="#1E1A1B" d="M421.765,144.736c-9.074,2.627-17.872,5.04-26.567,7.775
		c-2.608,0.82-3.785,0.083-5.284-1.959c-24.848-33.845-57.467-56.575-98.446-65.908c-55.8-12.709-106.23-0.578-150.035,36.393
		c-33.126,27.958-52.646,64.026-58.046,106.942c-6.204,49.307,6.78,93.6,38.88,131.766c26.33,31.306,59.92,50.876,100.211,57.693
		c51.73,8.752,98.174-3.931,138.848-37.21c11.147-9.12,20.766-19.704,29.036-31.483c1.435-2.043,2.555-2.77,5.21-1.933
		c8.684,2.735,17.495,5.064,26.29,7.559c-33.237,58.888-108.744,104.218-192.744,94.318
		C132.292,437.277,62.063,360.268,53.089,270.57c-10.154-101.493,55.264-188.245,145-213.189
		C288.29,32.307,378.229,72.978,421.765,144.736z"/>
	<path fill-rule="evenodd" clip-rule="evenodd" fill="#08A6D6" d="M104.015,281.271c-0.775-3.52,2.137-3.329,3.998-3.867
		c28.087-8.122,56.187-16.202,84.297-24.246c77.459-22.169,154.926-44.316,232.388-66.475c4.151-1.188,8.322-2.319,12.431-3.643
		c2.318-0.747,3.552-0.423,4.422,2.148c2.608,7.706,4.385,15.618,6.261,23.508c0.82,3.449-2.161,3.251-3.998,3.784
		c-24.73,7.167-49.479,14.273-74.234,21.356c-75.065,21.479-150.135,42.941-225.203,64.413c-9.424,2.695-18.872,5.313-28.247,8.167
		c-2.781,0.847-4.071,0.401-5.309-2.418C107.599,296.662,105.708,288.984,104.015,281.271z"/>
</g>
</svg>
