<svg xmlns="http://www.w3.org/2000/svg" xmlns:xlink="http://www.w3.org/1999/xlink" version="1.1" x="0px" y="0px" viewBox="0 0 46 46" enable-background="new 0 0 46 46" xml:space="preserve"><path d="M19.806,29.696l-2.388,1.379c-0.384,0.221-0.78,0.334-1.177,0.334c-0.431,0-0.817-0.131-1.132-0.359L9.755,41.687  l8.09-3.306l2.438,3.968l1.131-9.932c-0.083-0.104-0.161-0.212-0.231-0.333L19.806,29.696z"/><path d="M29.758,31.409c-0.396,0-0.792-0.113-1.177-0.334l-2.387-1.379l-1.378,2.388c-0.07,0.121-0.149,0.229-0.232,0.333  l1.131,9.932l2.438-3.968l8.09,3.306L30.89,31.05C30.576,31.278,30.189,31.409,29.758,31.409z"/><path d="M36.646,17.106l-0.882-0.509c-0.633-0.366-1.49-0.861-1.904-1.1c-0.414-0.239-0.557-0.773-0.318-1.187  c0.239-0.413,0.734-1.27,1.099-1.904l0.51-0.882c0.366-0.634,0.066-1.152-0.665-1.152l-1.019,0c-0.732,0-1.721,0-2.199,0  c-0.478,0-0.869-0.391-0.869-0.869c0-0.479,0-1.467,0-2.199V6.286c0-0.731-0.519-1.031-1.152-0.665L28.364,6.13  c-0.634,0.366-1.491,0.861-1.904,1.1c-0.414,0.239-0.948,0.096-1.188-0.318c-0.239-0.414-0.734-1.271-1.099-1.904l-0.509-0.882  c-0.365-0.633-0.964-0.633-1.33,0l-0.509,0.882c-0.366,0.633-0.86,1.49-1.1,1.904S19.952,7.47,19.538,7.23  c-0.414-0.239-1.271-0.733-1.904-1.1l-0.882-0.508C16.118,5.257,15.6,5.556,15.6,6.288v1.018c0,0.732,0,1.721,0,2.2  c0,0.478-0.391,0.869-0.869,0.869c-0.478,0-1.468,0-2.199,0h-1.019c-0.731,0-1.03,0.519-0.665,1.152l0.509,0.881  c0.366,0.634,0.861,1.491,1.1,1.905c0.238,0.414,0.096,0.948-0.318,1.188s-1.271,0.733-1.904,1.099l-0.882,0.51  c-0.633,0.366-0.633,0.964,0,1.33l0.882,0.509c0.633,0.366,1.491,0.86,1.905,1.099c0.414,0.239,0.558,0.773,0.318,1.188  s-0.734,1.271-1.099,1.904l-0.509,0.882c-0.366,0.633-0.066,1.151,0.665,1.151h1.018c0.731,0,1.721,0,2.199,0  c0.479,0,0.87,0.391,0.87,0.869c0,0.478,0,1.467,0,2.199v1.018c0,0.731,0.519,1.03,1.152,0.665l0.881-0.508  c0.633-0.366,1.49-0.861,1.904-1.101s0.948-0.097,1.188,0.318c0.239,0.413,0.734,1.271,1.1,1.904l0.509,0.882  c0.366,0.633,0.965,0.633,1.331,0l0.509-0.882c0.365-0.634,0.86-1.49,1.099-1.904c0.239-0.415,0.773-0.558,1.187-0.318  c0.414,0.239,1.271,0.733,1.905,1.099l0.882,0.51c0.634,0.365,1.152,0.066,1.152-0.666v-1.018c0-0.731,0-1.721,0-2.199  c0-0.478,0.391-0.869,0.869-0.869s1.467,0,2.199,0h1.02c0.731,0,1.03-0.519,0.665-1.152l-0.509-0.881  c-0.365-0.633-0.86-1.491-1.1-1.904c-0.239-0.414-0.096-0.949,0.318-1.187c0.414-0.239,1.271-0.734,1.904-1.1l0.882-0.509  C37.28,18.071,37.28,17.472,36.646,17.106z M29.432,15.129c-0.047,0.08-4.838,7.959-7.067,7.959c-1.999,0-5.338-4.568-5.636-5.986  c-0.106-0.504-0.078-0.835,0.09-1.041c0.102-0.125,0.25-0.194,0.42-0.194c0.374,0,0.813,0.341,1.073,0.632  c1.636,1.552,3.573,3.217,3.952,3.287c0.28-0.071,1.476-1.369,2.531-2.514c0.88-0.955,1.878-2.038,2.843-2.969  c0.989-0.956,1.877-1.212,2.16-0.718C29.977,13.897,29.857,14.403,29.432,15.129z"/></svg>
