<svg xmlns="http://www.w3.org/2000/svg" viewBox="0 0 24 24"><path d="M10.019 16.153l-1.48.854a1.458 1.458 0 0 1-.73.206c-.267 0-.506-.081-.702-.222l-3.32 6.598 5.018-2.051L10.315 24l.701-6.16a1.565 1.565 0 0 1-.143-.206l-.854-1.481zM16.19 17.214c-.245 0-.49-.069-.729-.206l-1.481-.854-.854 1.48a1.57 1.57 0 0 1-.144.206l.702 6.16 1.512-2.461 5.018 2.051-3.319-6.598a1.193 1.193 0 0 1-.705.222z"/><path d="M20.462 8.345l-.545-.316-1.182-.682a.538.538 0 0 1-.197-.736l.682-1.181.316-.546c.228-.394.04-.715-.413-.715h-1.996a.54.54 0 0 1-.538-.539V1.635c0-.454-.321-.64-.714-.413l-.548.316-1.182.682a.54.54 0 0 1-.736-.197 527.67 527.67 0 0 0-.683-1.181l-.314-.547c-.227-.393-.599-.393-.825 0l-.316.547-.682 1.181a.54.54 0 0 1-.736.197l-1.181-.682-.547-.315c-.393-.227-.714-.041-.714.413v1.995a.541.541 0 0 1-.539.539H4.876c-.453 0-.639.321-.413.714l.316.546.683 1.182a.542.542 0 0 1-.197.736c-.258.151-.789.456-1.182.683l-.546.316c-.393.228-.393.598 0 .826l.547.315 1.182.682a.54.54 0 0 1 .197.736l-.682 1.181-.315.547c-.227.393-.041.714.413.714h1.994a.54.54 0 0 1 .54.539v1.995c0 .452.322.639.714.412l.546-.314 1.181-.683a.54.54 0 0 1 .737.197l.683 1.179.315.549c.228.392.599.392.826 0l.314-.549c.228-.392.534-.924.683-1.179a.538.538 0 0 1 .736-.197l1.182.681.546.316c.395.227.715.04.715-.412v-.632-1.365c0-.295.242-.538.539-.538h1.996c.453 0 .639-.321.413-.714l-.315-.547-.683-1.181a.54.54 0 0 1 .197-.736l1.181-.683.547-.316c.389-.227.389-.599-.004-.825zm-4.474-1.226c-.028.049-2.999 4.936-4.382 4.936-1.24 0-3.311-2.833-3.496-3.712-.065-.314-.047-.518.057-.646a.327.327 0 0 1 .261-.121c.232 0 .504.212.666.392 1.015.962 2.216 1.995 2.451 2.039.173-.044.915-.849 1.569-1.559.546-.592 1.164-1.264 1.764-1.841.612-.593 1.163-.752 1.339-.445.11.192.036.506-.229.957z"/></svg>