<svg role="img" viewBox="0 0 24 24" xmlns="http://www.w3.org/2000/svg"><path d="M21.51 6.92L14.87.27a.92.92 0 0 0-.65-.27H5.35a3.14 3.14 0 0 0-3.13 3.14v17.72c0 1.73 1.4 3.14 3.13 3.14h13.3c1.73 0 3.13-1.4 3.13-3.14V7.56c0-.23-.1-.47-.27-.64zm-6.37-3.77l3.5 3.5h-3.5v-3.5zm3.5 19H5.36a1.3 1.3 0 0 1-1.29-1.29V3.14c0-.71.58-1.3 1.3-1.3h7.97c-.01.07-.04.13-.04.2v5.53c0 .51.42.92.93.92h5.53c.07 0 .13-.02.19-.03v12.4c0 .71-.58 1.3-1.3 1.3z"/><path d="M7.57 9.6h2.21a.92.92 0 0 0 0-1.85H7.57a.92.92 0 1 0 0 1.85zM16.43 12.19H7.57a.92.92 0 1 0 0 1.84h8.86a.92.92 0 0 0 0-1.84zM16.43 16.61H7.57a.92.92 0 1 0 0 1.85h8.86a.92.92 0 0 0 0-1.85z"/></svg>
