<svg role="img" viewBox="0 0 24 24" xmlns="http://www.w3.org/2000/svg"><path d="M11.98 23.46a.83.83 0 0 1-.6-.24l-4.46-4.47a.84.84 0 0 1 1.19-1.18l3.03 3.03v-8.02a.84.84 0 1 1 1.68 0v8.02l3.03-3.03a.84.84 0 0 1 1.19 1.18l-4.47 4.47a.84.84 0 0 1-.6.24zm10.27-6.7a.84.84 0 0 1-.72-1.25c.73-1.25.95-2.47.7-3.73-.6-1.9-2.31-3.28-4.11-3.28h-1.34a.84.84 0 0 1-.81-.64 7.4 7.4 0 0 0-6.22-5.62 7.5 7.5 0 0 0-7.3 4.02c-1.22 2.55-.99 6.67.52 8.99a.84.84 0 1 1-1.4.91C-.26 13.37-.54 8.6.94 5.52a9.2 9.2 0 0 1 9-4.94 9.11 9.11 0 0 1 7.47 6.25h.7a6.14 6.14 0 0 1 5.73 4.57 6.78 6.78 0 0 1-.87 4.95.84.84 0 0 1-.73.41z"/></svg>
