<svg xmlns="http://www.w3.org/2000/svg" xmlns:xlink="http://www.w3.org/1999/xlink" version="1.1" x="0px" y="0px" viewBox="0 0 64 64" enable-background="new 0 0 64 64" xml:space="preserve"><g><g><circle cx="22" cy="32" r="3"/><path d="M39,19v-9c0-0.552-0.447-1-1-1H26c-0.552,0-1,0.448-1,1v9H39z"/><path d="M56,21H8c-0.552,0-1,0.448-1,1v32c0,0.553,0.448,1,1,1h48c0.553,0,1-0.447,1-1V22C57,21.448,56.553,21,56,21z M22,27    c2.757,0,5,2.243,5,5s-2.243,5-5,5s-5-2.243-5-5S19.243,27,22,27z M31,48c0,0.553-0.448,1-1,1H14c-0.552,0-1-0.447-1-1v-4    c0-2.757,2.243-5,5-5h8c2.757,0,5,2.243,5,5V48z M50,43H36c-0.553,0-1-0.447-1-1s0.447-1,1-1h14c0.553,0,1,0.447,1,1    S50.553,43,50,43z M50,37H36c-0.553,0-1-0.447-1-1s0.447-1,1-1h14c0.553,0,1,0.447,1,1S50.553,37,50,37z M50,31H36    c-0.553,0-1-0.448-1-1s0.447-1,1-1h14c0.553,0,1,0.448,1,1S50.553,31,50,31z"/><path d="M26,41h-8c-1.654,0-3,1.346-3,3v3h14v-3C29,42.346,27.654,41,26,41z"/></g></g></svg>
