<svg xmlns="http://www.w3.org/2000/svg" xmlns:xlink="http://www.w3.org/1999/xlink" xml:space="preserve" version="1.1" shape-rendering="geometricPrecision" text-rendering="geometricPrecision" image-rendering="optimizeQuality" fill-rule="evenodd" clip-rule="evenodd" viewBox="0 0 5000000 5000000" x="0px" y="0px"><g><path fill="#000000" fill-rule="nonzero" d="M3913115 3913115c782505,-782741 782505,-2043725 -354,-2826230 -782623,-782505 -2043253,-782623 -2825876,354 -1188817,1189171 -454739,3145375 1104483,3389280 261505,40867 530332,29292 787230,-34253 351743,-86932 678801,-272607 934517,-529151zm-3032930 -473755l416352 0 -6496 -126736 -477417 0c-111381,-230086 -176817,-490173 -184848,-749079l407965 0 -46064 -126854 -361901 0c7913,-234102 59057,-457574 145752,-662501l758056 0c-50081,119413 -88350,239299 -114689,359775 46183,32599 54096,71341 60120,120830l56577 -62836c27993,-139611 73348,-278985 135358,-417769l274261 0 -40041 -126855 -172919 0c33663,-64844 70987,-129571 111736,-194179l-49135 -156147c-75829,112090 -144454,228669 -203865,350326l-756165 0c294576,-572734 869909,-967353 1530638,-1015307 -125082,120948 -246031,248393 -358003,383043 43938,7796 83034,29647 112799,63073 84215,-100042 41458,-37206 64490,-107365 38269,-116815 144335,-128272 153548,-133115 31891,-32836 64608,-65553 98271,-98389l0 106539c73349,25985 125319,92365 131343,170793l20551 265048 13229 -70278 0 -467613c73113,72285 142209,145870 207054,220164 121421,-1535 219810,105240 194297,241307 7678,10512 15355,20906 22915,31418 32717,-27520 73821,-43820 116578,-46064 -149887,-203393 -320798,-389894 -494071,-557853 656241,51144 1227677,444700 1520717,1014599l-746716 0c-28702,-58939 -59884,-116814 -92956,-173509l-61537 148469c4488,8386 8859,16772 13229,25040l-23623 0 -52561 126855 137603 0c43112,96381 78191,193116 104885,290088 28229,-35789 70396,-54569 116461,-51971 -22915,-79608 -50908,-158981 -83979,-238117l748488 0c86695,204927 137839,428399 145752,662501l-244259 0 -62010 126854 306269 0c-8031,258788 -73467,518993 -184848,749079l-359775 0c-4252,42757 -7678,84924 -10512,126736l302726 0c-106893,183431 -243787,347137 -404659,484622 2008,-298238 6615,-564349 60475,-887272 3071,-29292 89766,-36616 99806,-282056l167604 -341822c30709,-62128 -63546,-108901 -94373,-46773l-131225 264575c-12048,26576 -62600,15591 -57167,-12638l93901 -362610c17480,-67089 -84570,-93428 -101933,-26458l-100279 386942c-4842,21851 -45828,17835 -46064,-3780l-4606 -464896c708,-66735 -105949,-69333 -105240,1771l4488 454621c-1535,23387 -46182,20434 -50671,1890l-92483 -380800c-16418,-67206 -118704,-42403 -102405,24804l120240 501985c10867,37914 -3425,49844 -32717,17480 -43939,-49017 -108311,-133586 -203510,-71931 116578,133469 296111,422021 503519,392375 21851,-3071 28348,30119 4961,34371 -56222,11811 -144690,-11221 -194415,-38387 50789,201857 -81381,806836 -93665,1078498 -153548,79609 -319380,138666 -493834,173510 -35907,-621043 -80672,-1210196 -19135,-1834664 1890,-52679 145989,-66144 136068,-486630l243550 -595294c44766,-107956 -119649,-176108 -164414,-68034l-190990 460763c-11812,31300 -106657,32127 -97799,-14765l117051 -621633c21615,-115043 -153194,-147997 -174927,-33072l-124964 663446c-5552,37442 -75239,35316 -77955,-1181l-60593 -782860c-7205,-113153 -186502,-104176 -177289,15001l59293 765615c0,38859 -75356,39804 -85042,8858l-199258 -631201c-35198,-111381 -204810,-57876 -169612,53624l259615 831995c20788,76183 -9804,75238 -53033,33190 -72168,-70160 -124138,-138666 -227724,-138666 -43584,0 -87050,13583 -123429,40749 212014,212015 488283,671714 893060,603917 47009,0 43702,49490 12165,57285 -104176,21851 -235755,1890 -331782,-42521 103232,318317 -50198,1260040 -41222,1737574 -193352,-24213 -377846,-78073 -548639,-156855 -37324,-371350 -80790,-722857 -60238,-1099050 -236,-30710 84688,-43348 67797,-291387l128745 -358358c23622,-65081 -75357,-101106 -98980,-36025l-101105 277568c-9095,27875 -60357,18308 -58231,-6260l53152 -370760c9803,-68624 -94492,-83506 -104295,-15000l-56813 395681c-2126,20670 -43466,24214 -46064,1300l-56104 -461590c-5788,-65435 -113154,-57875 -104531,13583l54923 451314c1063,23386 -43702,25276 -50081,7441l-134295 -368161c-23623,-65081 -122602,-29056 -98862,36025l175045 485448c14528,37678 945,49017 -30473,21024 -49254,-43820 -122602,-120712 -210243,-48781 130516,119532 341231,386469 543915,334026 21142,-5433 31654,26458 8622,33663 -53978,17953 -145516,4606 -197368,-16654 67561,180950 5433,553836 32481,809789 -200085,-150831 -368988,-340404 -495370,-557498zm1065624 -1002669c-354,35788 -24213,89294 -37914,126854l242133 0 -123547 -126854 -80672 0zm-205636 875933l14764 362846c111736,167840 249102,336271 412927,505410 1771,-57167 4606,-115870 8149,-175636 -173863,-190045 -312647,-378673 -418123,-565884l462298 0c3543,-42875 6851,-85160 9922,-126736l-489937 0zm1286970 -875933c-51616,97798 -66026,68270 -71459,126854l293277 0 -30710 -126854 -191108 0zm-97917 875933l2953 126736 319380 0c-79963,142091 -179297,293277 -298592,444581 3189,54805 6614,110201 10040,166305 160635,-180478 291151,-360012 392965,-538836l29528 -353043c-19961,51262 -42403,102641 -67325,154257l-388949 0z"/></g></svg>
