<svg role="img" viewBox="0 0 24 24" xmlns="http://www.w3.org/2000/svg"><circle cx="7.6" cy="12" r="1.32"/><path d="M15.08 6.28V2.32c0-.24-.2-.44-.44-.44H9.36c-.24 0-.44.2-.44.44v3.96h6.16zm7.48.88H1.44c-.24 0-.44.2-.44.44v14.08c0 .24.2.44.44.44h21.12c.24 0 .44-.2.44-.44V7.6c0-.24-.2-.44-.44-.44zM7.6 9.8a2.2 2.2 0 1 1 0 4.4 2.2 2.2 0 0 1 0-4.4zm3.96 9.24c0 .24-.2.44-.44.44H4.08a.44.44 0 0 1-.44-.44v-1.76c0-1.21.99-2.2 2.2-2.2h3.52c1.21 0 2.2.99 2.2 2.2v1.76zm8.36-2.2h-6.16a.44.44 0 0 1 0-.88h6.16a.44.44 0 1 1 0 .88zm0-2.64h-6.16a.44.44 0 0 1 0-.88h6.16a.44.44 0 1 1 0 .88zm0-2.64h-6.16a.44.44 0 0 1 0-.88h6.16a.44.44 0 0 1 0 .88z"/><path d="M9.36 15.96H5.84c-.73 0-1.32.6-1.32 1.32v1.32h6.16v-1.32c0-.73-.6-1.32-1.32-1.32z"/></svg>
