<svg role="img" viewBox="0 0 24 24" xmlns="http://www.w3.org/2000/svg"><path d="M9.16 11.62h-.48c0 .21-.15.54-.23.76H9.9l-.74-.76zM7.53 19.05c.67 1 1.5 2.02 2.48 3.03l.05-1.05a18.51 18.51 0 0 1-2.5-3.4h2.76c.02-.26.05-.5.06-.76H7.44l.1 2.18zM15.16 11.62c-.3.59-.4.41-.43.76h1.76l-.18-.76h-1.15zM14.6 17.63h1.9a20.6 20.6 0 0 1-1.78 2.67l.06 1a19.27 19.27 0 0 0 2.36-3.23l.17-2.12c-.12.3-.25.61-.4.92h-2.33l.01.76z"/><path d="M20.47 3.52a11.96 11.96 0 0 0-16.94 0C-3.6 10.67.8 22.4 10.15 23.86A11.98 11.98 0 0 0 20.47 3.52zm1.65 13.35h-2.16l-.06.76h1.82a11.3 11.3 0 0 1-2.43 2.9c.01-1.78.04-3.37.36-5.31.02-.18.54-.22.6-1.7l1-2.04c.19-.37-.38-.65-.56-.28l-.79 1.58c-.07.16-.37.1-.34-.07l.56-2.18c.1-.4-.5-.56-.6-.15l-.61 2.32c-.03.13-.28.1-.28-.03l-.02-2.78c0-.4-.64-.42-.64 0l.03 2.73c0 .14-.28.13-.3.01l-.56-2.28c-.1-.4-.7-.25-.61.15l.72 3c.07.24-.02.3-.2.11-.26-.3-.65-.8-1.22-.43.7.8 1.78 2.53 3.02 2.35.13-.01.17.19.03.21-.33.07-.86-.07-1.16-.23.3 1.21-.5 4.84-.57 6.47-.92.48-1.91.83-2.96 1.04-.21-3.73-.48-7.26-.11-11 .01-.32.87-.4.81-2.92l1.46-3.57c.27-.65-.71-1.06-.98-.4l-1.15 2.76c-.07.18-.64.19-.58-.1l.7-3.72c.13-.69-.92-.89-1.05-.2l-.75 3.98c-.03.22-.45.21-.47 0l-.36-4.7c-.04-.68-1.12-.63-1.06.09L11 7.83c0 .23-.45.23-.5.05L9.3 4.09c-.21-.66-1.23-.34-1.02.33L9.84 9.4c.12.45-.06.45-.32.2-.43-.43-.74-.84-1.37-.84-.26 0-.52.08-.74.25 1.27 1.27 2.93 4.02 5.36 3.62.28 0 .26.3.07.34-.62.13-1.41.01-1.99-.25.62 1.9-.3 7.55-.25 10.42a11.23 11.23 0 0 1-3.29-.94c-.22-2.23-.48-4.34-.36-6.6 0-.18.51-.26.41-1.74l.77-2.15c.14-.4-.45-.6-.6-.22l-.6 1.67c-.05.17-.36.1-.35-.04l.32-2.22c.06-.41-.56-.5-.62-.1l-.34 2.38c-.02.12-.26.14-.28 0l-.34-2.76c-.03-.4-.67-.35-.62.08l.33 2.7c0 .15-.27.16-.3.05l-.81-2.2c-.14-.4-.73-.18-.6.21l1.06 2.91c.08.23 0 .3-.19.13-.3-.27-.73-.73-1.26-.3.79.72 2.05 2.32 3.27 2 .12-.02.19.17.05.21-.33.1-.88.03-1.19-.1.4 1.08.04 3.32.2 4.86-1.2-.9-2.21-2.05-2.97-3.35h2.5l-.04-.76H1.88a11.22 11.22 0 0 1-1.1-4.49h2.44l-.28-.76H.77c.05-1.4.36-2.74.88-3.97h4.54c-.3.71-.53 1.43-.68 2.15.27.2.32.43.36.73l.34-.38c.16-.83.44-1.67.8-2.5h1.65l-.24-.76H7.38c.2-.4.43-.78.67-1.17l-.29-.93c-.45.67-.87 1.37-1.22 2.1H2a11.26 11.26 0 0 1 9.18-6.1 29 29 0 0 0-2.14 2.3c.26.05.5.18.67.38.5-.6.25-.22.39-.64.23-.7.87-.77.92-.8l.59-.59v.64c.44.15.75.55.79 1.02l.12 1.6.08-.43v-2.8c.44.43.85.87 1.24 1.32.73-.01 1.32.63 1.17 1.45l.14.18c.2-.16.44-.26.7-.27A27 27 0 0 0 12.87.8c3.94.3 7.36 2.67 9.12 6.08h-4.48c-.17-.35-.36-.7-.55-1.04l-.37.9.07.14h-.14l-.31.77h.82c.26.57.47 1.15.63 1.74a.81.81 0 0 1 .7-.32 13 13 0 0 0-.5-1.42h4.48c.52 1.22.83 2.56.88 3.97h-1.47l-.37.76h1.84a11.2 11.2 0 0 1-1.11 4.5z"/></svg>
