<svg role="img" viewBox="0 0 24 24" xmlns="http://www.w3.org/2000/svg"><path d="M23.97 11.2A12 12 0 0 0 12.8.03V0h-1.6v.03A12 12 0 0 0 .03 11.2H0v1.6h.03A12 12 0 0 0 11.2 23.97V24h1.6v-.03A12 12 0 0 0 23.97 12.8H24v-1.6h-.03zM7.52 2.6a12.74 12.74 0 0 0-1.87 3.8h-2.4a10.45 10.45 0 0 1 4.27-3.8zM2.4 8h2.83c-.22 1-.35 2.08-.4 3.2h-3.2c.1-1.12.37-2.2.79-3.2H2.4zm-.75 4.8H4.8c.05 1.12.18 2.2.4 3.2H2.4a10.3 10.3 0 0 1-.77-3.2h.02zm1.6 4.8h2.4a13.3 13.3 0 0 0 1.87 3.8 10.45 10.45 0 0 1-4.27-3.8zm7.95 4.7c-1.65-.44-3.06-2.2-3.92-4.7h3.92v4.7zm0-6.3H6.83c-.22-1-.37-2.08-.42-3.2h4.79V16zm0-4.8H6.42c.04-1.12.19-2.2.41-3.2h4.37v3.2zm0-4.8H7.28c.86-2.5 2.27-4.26 3.92-4.7v4.7zm9.57 0h-2.4a12.53 12.53 0 0 0-1.89-3.8c1.75.85 3.24 2.16 4.29 3.8zM12.8 1.7c1.65.44 3.06 2.2 3.92 4.7H12.8V1.7zm0 6.3h4.37c.22 1 .37 2.08.41 3.2H12.8V8zm0 4.8h4.78a18.1 18.1 0 0 1-.41 3.2H12.8v-3.2zm0 9.5v-4.7h3.92c-.86 2.5-2.27 4.26-3.92 4.7zm3.68-.9a12.54 12.54 0 0 0 1.89-3.8h2.4a10.46 10.46 0 0 1-4.3 3.8zM21.6 16h-2.81c.22-1 .35-2.08.4-3.2h3.18c-.08 1.12-.35 2.2-.77 3.2zm-2.4-4.8a18.4 18.4 0 0 0-.4-3.2h2.81c.42 1 .7 2.08.78 3.2H19.2z"/></svg>
