<svg role="img" viewBox="0 0 24 24" xmlns="http://www.w3.org/2000/svg"><path d="M22.313 6.5h-6.875V3.75a.689.689 0 0 0-.688-.688h-5.5a.689.689 0 0 0-.688.688V6.5H1.688A.688.688 0 0 0 1 7.188v3.094a3.156 3.156 0 0 0 3.207 3.094h5.73v-1.031c0-.76.615-1.375 1.375-1.375h1.375c.759 0 1.375.615 1.375 1.375v1.031h5.73a3.156 3.156 0 0 0 3.207-3.094V7.188a.686.686 0 0 0-.686-.688zm-8.25 0H9.938V4.438h4.125V6.5zM23 12.423v7.827c0 .38-.308.688-.688.688H1.688A.688.688 0 0 1 1 20.25v-7.827a3.925 3.925 0 0 0 3.207 1.64h5.73v1.031c0 .759.615 1.375 1.375 1.375h1.375c.759 0 1.375-.616 1.375-1.375v-1.031h5.73A3.928 3.928 0 0 0 23 12.423zm-11.687 3.358a.689.689 0 0 1-.688-.688v-2.75c0-.379.308-.688.688-.688h1.375c.38 0 .688.308.688.688v2.75c0 .38-.308.688-.688.688h-1.375z"/></svg>
